<svg width="32" height="32" viewBox="0 0 32 32" fill="none" xmlns="http://www.w3.org/2000/svg">
<path d="M15.0625 10.375L18.8125 6.625L15.0625 2.875" stroke="white" stroke-width="2" stroke-linecap="round" stroke-linejoin="round"/>
<path d="M27.2112 16.9375C27.2362 17.2463 27.25 17.5625 27.25 17.875C27.2511 18.8237 27.1318 19.7688 26.895 20.6875" stroke="white" stroke-width="2" stroke-linecap="round" stroke-linejoin="round"/>
<path d="M24.62 10.6445C25.2308 11.3705 25.7471 12.1711 26.1562 13.027" stroke="white" stroke-width="2" stroke-linecap="round" stroke-linejoin="round"/>
<path d="M24.5938 25.1406C24.3937 25.3773 24.1821 25.6073 23.9587 25.8306C23.2885 26.5021 22.5359 27.086 21.7188 27.5681" stroke="white" stroke-width="2" stroke-linecap="round" stroke-linejoin="round"/>
<path d="M16.9375 29.0863C16.6287 29.1113 16.3125 29.125 16 29.125C13.0163 29.125 10.1548 27.9397 8.04505 25.83C5.93526 23.7202 4.75 20.8587 4.75 17.875C4.75 14.8913 5.93526 12.0298 8.04505 9.92005C10.1548 7.81026 13.0163 6.625 16 6.625H18.8125" stroke="white" stroke-width="2" stroke-linecap="round" stroke-linejoin="round"/>
<path d="M10.9839 22V20.91H12.6839V16.03L13.3239 16.07L11.3639 17.26L10.8339 16.29L13.0539 14.95H13.9839V20.91H15.5639V22H10.9839ZM19 22.1C18.44 22.1 17.9667 21.96 17.58 21.68C17.2 21.4 16.91 20.99 16.71 20.45C16.5167 19.91 16.42 19.2467 16.42 18.46C16.42 17.6733 16.5167 17.0133 16.71 16.48C16.9033 15.9467 17.1933 15.5433 17.58 15.27C17.9667 14.99 18.44 14.85 19 14.85C19.5667 14.85 20.04 14.9867 20.42 15.26C20.8067 15.5333 21.0967 15.94 21.29 16.48C21.4833 17.0133 21.58 17.67 21.58 18.45C21.58 19.2367 21.48 19.9 21.28 20.44C21.0867 20.98 20.8 21.3933 20.42 21.68C20.04 21.96 19.5667 22.1 19 22.1ZM19 21.02C19.4467 21.02 19.7767 20.8133 19.99 20.4C20.21 19.9867 20.32 19.34 20.32 18.46C20.32 17.58 20.2133 16.94 20 16.54C19.7867 16.1333 19.4533 15.93 19 15.93C18.5533 15.93 18.22 16.1333 18 16.54C17.7867 16.94 17.68 17.58 17.68 18.46C17.68 19.34 17.7867 19.9867 18 20.4C18.22 20.8133 18.5533 21.02 19 21.02Z" fill="white"/>
</svg>
