<svg width="32" height="34" viewBox="0 0 32 34" fill="none" xmlns="http://www.w3.org/2000/svg">
<path d="M17.925 12.457L29.5875 24.1312C29.8936 24.4574 30.0655 24.8992 30.0655 25.3598C30.0655 25.8203 29.8936 26.2621 29.5875 26.5883L28.425 27.8234C28.118 28.1487 27.7022 28.3313 27.2687 28.3313C26.8353 28.3313 26.4195 28.1487 26.1125 27.8234L15.125 15.432" stroke="white" stroke-width="2" stroke-linecap="round" stroke-linejoin="round"/>
<path d="M5.81392 12.4039C9.70621 10.1074 12.915 6.6981 15.0764 2.56254C15.3834 2.23732 15.7992 2.05469 16.2327 2.05469C16.6662 2.05469 17.082 2.23732 17.3889 2.56254L21.7764 7.22426C22.0833 7.55266 22.2555 7.99665 22.2555 8.45941C22.2555 8.92218 22.0833 9.36617 21.7764 9.69457C17.8445 11.9287 14.6219 15.348 12.5139 19.5227C12.207 19.8479 11.7912 20.0305 11.3577 20.0305C10.9242 20.0305 10.5084 19.8479 10.2014 19.5227L5.81392 14.861C5.50782 14.5348 5.33594 14.093 5.33594 13.6325C5.33594 13.1719 5.50782 12.7301 5.81392 12.4039Z" stroke="white" stroke-width="2" stroke-linecap="round" stroke-linejoin="round"/>
<path d="M16.9375 28.6211C16.9375 28.0927 16.74 27.586 16.3883 27.2124C16.0367 26.8388 15.5598 26.6289 15.0625 26.6289H5.6875C5.19022 26.6289 4.71331 26.8388 4.36167 27.2124C4.01004 27.586 3.8125 28.0927 3.8125 28.6211V31.9414H16.9375V28.6211Z" stroke="white" stroke-width="2" stroke-linecap="round" stroke-linejoin="round"/>
<path d="M1.9375 31.9414H18.8125" stroke="white" stroke-width="2" stroke-linecap="round" stroke-linejoin="round"/>
</svg>
