<svg width="24" height="24" viewBox="0 0 24 24" fill="none"
    xmlns="http://www.w3.org/2000/svg">
    <g clip-path="url(#clip0_280_1535)">
        <path d="M13.9 15.3135C14.3814 15.9612 14.9969 16.4974 15.7045 16.8856C16.4121 17.2737 17.195 17.5046 18 17.5625C19.3924 17.5625 20.7277 17.0094 21.7123 16.0248C22.6969 15.0402 23.25 13.7049 23.25 12.3125C23.25 10.9201 22.6969 9.58476 21.7123 8.60019C20.7277 7.61562 19.3924 7.0625 18 7.0625C14.25 7.0625 12 12.3125 12 12.3125C12 12.3125 9.75 17.5625 6 17.5625C4.60761 17.5625 3.27226 17.0094 2.28769 16.0248C1.30312 15.0402 0.75 13.7049 0.75 12.3125C0.75 10.9201 1.30312 9.58476 2.28769 8.60019C3.27226 7.61562 4.60761 7.0625 6 7.0625C6.87031 7.14273 7.71609 7.39464 8.48848 7.80366C9.26087 8.21268 9.94454 8.77071 10.5 9.4455" stroke="white" stroke-width="1.5" stroke-linecap="round" stroke-linejoin="round"/>
        <path d="M9.88769 5.74609L10.5037 9.44509L6.80469 10.0621" stroke="white" stroke-width="1.5" stroke-linecap="round" stroke-linejoin="round"/>
    </g>
    <defs>
        <clipPath id="clip0_280_1535">
            <rect width="24" height="24" fill="white"/>
        </clipPath>
    </defs>
</svg>
