<svg width="32" height="32" viewBox="0 0 32 32" fill="none" xmlns="http://www.w3.org/2000/svg">
<path d="M3.92188 5.07049V26.933C3.92185 27.2572 4.00586 27.5758 4.16573 27.8578C4.3256 28.1398 4.55585 28.3756 4.83402 28.542C5.11218 28.7085 5.42876 28.8 5.75284 28.8076C6.07693 28.8153 6.39745 28.7387 6.68313 28.5855L27.0869 17.6542C27.3858 17.494 27.6356 17.2557 27.8098 16.9647C27.984 16.6737 28.0759 16.3409 28.0759 16.0017C28.0759 15.6626 27.984 15.3298 27.8098 15.0388C27.6356 14.7478 27.3858 14.5095 27.0869 14.3492L6.68313 3.41799C6.39745 3.26476 6.07693 3.18822 5.75284 3.19583C5.42876 3.20344 5.11218 3.29495 4.83402 3.46142C4.55585 3.62789 4.3256 3.86364 4.16573 4.14565C4.00586 4.42767 3.92185 4.74631 3.92188 5.07049Z" stroke="white" stroke-width="2" stroke-linecap="round" stroke-linejoin="round"/>
</svg>
