<svg width="32" height="32" viewBox="0 0 32 32" fill="none" xmlns="http://www.w3.org/2000/svg">
<path d="M12.8438 30.0588L8.03125 23.6437C7.79362 23.3265 7.66014 22.9434 7.64917 22.5472C7.6382 22.151 7.75029 21.7611 7.97 21.4312C8.11468 21.2146 8.30198 21.0298 8.52047 20.8879C8.73896 20.7461 8.98406 20.6502 9.24081 20.6063C9.49757 20.5623 9.76059 20.5711 10.0138 20.6321C10.2671 20.6931 10.5052 20.8051 10.7138 20.9613L12.8388 22.5588V10.375C12.8388 9.87772 13.0363 9.40081 13.3879 9.04917C13.7396 8.69754 14.2165 8.5 14.7138 8.5C15.211 8.5 15.6879 8.69754 16.0396 9.04917C16.3912 9.40081 16.5888 9.87772 16.5888 10.375V17.875L21.8063 19.035C22.6962 19.2327 23.4836 19.7479 24.0213 20.4841C24.5589 21.2203 24.81 22.1271 24.7275 23.035L24.0888 30.0625L12.8438 30.0588Z" stroke="white" stroke-width="2" stroke-linecap="round" stroke-linejoin="round"/>
<path d="M14.7188 4.74609V1.93359" stroke="white" stroke-width="2" stroke-linecap="round" stroke-linejoin="round"/>
<path d="M18.4688 5.68359L20.3438 3.80859" stroke="white" stroke-width="2" stroke-linecap="round" stroke-linejoin="round"/>
<path d="M10.9688 5.68359L9.09375 3.80859" stroke="white" stroke-width="2" stroke-linecap="round" stroke-linejoin="round"/>
<path d="M19.4062 8.49609H22.2188" stroke="white" stroke-width="2" stroke-linecap="round" stroke-linejoin="round"/>
<path d="M10.0312 8.49609H7.21875" stroke="white" stroke-width="2" stroke-linecap="round" stroke-linejoin="round"/>
</svg>
